<svg width="480" height="480" viewBox="0 0 480 480" fill="none" xmlns="http://www.w3.org/2000/svg">
<rect width="480" height="480" fill="#0F172A"/>
<path fill-rule="evenodd" clip-rule="evenodd" d="M253.231 113C231.564 113 214 130.564 214 152.231L214 164L265 164L265 124.769C265 118.269 259.731 113 253.231 113ZM112 152.231C112 130.564 129.564 113 151.231 113C157.731 113 163 118.269 163 124.769L163 164L316 164L316 152.231C316 130.564 333.564 113 355.231 113C361.731 113 367 118.269 367 124.769L367 164L367 316L367 327.769C367 349.436 349.436 367 327.769 367C321.269 367 316 361.731 316 355.231L316 316L124 316C117.373 316 112 310.627 112 304L112 164L112 152.231ZM188.5 199C174.417 199 163 210.417 163 224.5L163 273C163 277.418 166.582 281 171 281L206 281C210.418 281 214 277.418 214 273L214 224.5C214 210.417 202.583 199 188.5 199ZM265 224.5C265 210.417 276.417 199 290.5 199C304.583 199 316 210.417 316 224.5L316 273C316 277.418 312.418 281 308 281L273 281C268.582 281 265 277.418 265 273L265 224.5Z" fill="#F8FAFC"/>
</svg>
