<svg width="398" height="398" viewBox="0 0 398 398" fill="none" xmlns="http://www.w3.org/2000/svg">
<path fill-rule="evenodd" clip-rule="evenodd" d="M212.231 72C190.564 72 173 89.5642 173 111.231L173 123L224 123L224 83.7692C224 77.2693 218.731 72 212.231 72ZM71.0001 111.231C71.0001 89.5642 88.5643 72 110.231 72C116.731 72 122 77.2693 122 83.7692L122 123L275 123L275 111.231C275 89.5642 292.564 72 314.231 72C320.731 72 326 77.2693 326 83.7693L326 123L326 275L326 286.769C326 308.436 308.436 326 286.769 326C280.269 326 275 320.731 275 314.231L275 275L83.0001 275C76.3727 275 71.0001 269.627 71.0001 263L71.0001 123L71.0001 111.231ZM147.5 158C133.417 158 122 169.417 122 183.5L122 232C122 236.418 125.582 240 130 240L165 240C169.418 240 173 236.418 173 232L173 183.5C173 169.417 161.583 158 147.5 158ZM224 183.5C224 169.417 235.417 158 249.5 158C263.583 158 275 169.417 275 183.5L275 232C275 236.418 271.418 240 267 240L232 240C227.582 240 224 236.418 224 232L224 183.5Z" fill="#FBBF24"/>
</svg>
